<svg xmlns="http://www.w3.org/2000/svg" width="1600" height="420" viewBox="0 0 1600 420" role="img" aria-labelledby="title desc">
  <title id="title">CompText banner</title>
  <desc id="desc">CompText brand banner: The Operating System for Context.</desc>
  <defs>
    <linearGradient id="bg" x1="0" y1="0" x2="1" y2="1">
      <stop offset="0%" stop-color="#05070D"/>
      <stop offset="55%" stop-color="#0B1020"/>
      <stop offset="100%" stop-color="#111827"/>
    </linearGradient>
    <linearGradient id="accent" x1="0" y1="0" x2="1" y2="1">
      <stop offset="0%" stop-color="#00F5A0"/>
      <stop offset="48%" stop-color="#38BDF8"/>
      <stop offset="100%" stop-color="#A78BFA"/>
    </linearGradient>
    <radialGradient id="glow" cx="72%" cy="38%" r="56%">
      <stop offset="0%" stop-color="#38BDF8" stop-opacity="0.28"/>
      <stop offset="100%" stop-color="#38BDF8" stop-opacity="0"/>
    </radialGradient>
    <filter id="shadow" x="-20%" y="-20%" width="140%" height="140%">
      <feDropShadow dx="0" dy="22" stdDeviation="28" flood-color="#000000" flood-opacity="0.45"/>
    </filter>
  </defs>
  <rect width="1600" height="420" rx="42" fill="url(#bg)"/>
  <circle cx="1185" cy="122" r="360" fill="url(#glow)"/>
  <g opacity="0.18" stroke="#1F2937" stroke-width="1">
    <path d="M0 70h1600M0 140h1600M0 210h1600M0 280h1600M0 350h1600"/>
    <path d="M120 0v420M240 0v420M360 0v420M480 0v420M600 0v420M720 0v420M840 0v420M960 0v420M1080 0v420M1200 0v420M1320 0v420M1440 0v420"/>
  </g>
  <g transform="translate(112 78)" filter="url(#shadow)">
    <path d="M88 0 176 48v92l-88 48L0 140V48L88 0Z" fill="#F8FAFC"/>
    <path d="M88 38 137 65v22L88 61 39 88v40l49 27 49-27v22l-49 27-68-38V77l68-39Z" fill="#05070D"/>
    <path d="M20 142 88 180l68-38" fill="none" stroke="#00F5A0" stroke-width="10" stroke-linecap="round"/>
    <path d="M20 172 88 210l68-38" fill="none" stroke="#38BDF8" stroke-width="10" stroke-linecap="round"/>
    <path d="M20 202 88 240l68-38" fill="none" stroke="#A78BFA" stroke-width="10" stroke-linecap="round"/>
  </g>
  <text x="350" y="150" fill="#F8FAFC" font-family="Inter, ui-sans-serif, system-ui, -apple-system, Segoe UI, sans-serif" font-size="78" font-weight="850" letter-spacing="18">COMPTEXT</text>
  <text x="356" y="210" fill="#00F5A0" font-family="Inter, ui-sans-serif, system-ui, -apple-system, Segoe UI, sans-serif" font-size="25" font-weight="800" letter-spacing="9">THE OPERATING SYSTEM FOR CONTEXT</text>
  <text x="356" y="270" fill="#E5E7EB" font-family="Inter, ui-sans-serif, system-ui, -apple-system, Segoe UI, sans-serif" font-size="31" font-weight="500">Deterministic context infrastructure for AI systems.</text>
  <text x="356" y="322" fill="#CBD5E1" font-family="Inter, ui-sans-serif, system-ui, -apple-system, Segoe UI, sans-serif" font-size="24" font-weight="500">Models are providers. Context is the product.</text>
  <g transform="translate(1160 84)" opacity="0.94">
    <polygon points="120,0 250,70 120,140 -10,70" fill="#00F5A0" opacity="0.18" stroke="#00F5A0"/>
    <polygon points="120,70 250,140 120,210 -10,140" fill="#38BDF8" opacity="0.16" stroke="#38BDF8"/>
    <polygon points="120,140 250,210 120,280 -10,210" fill="#A78BFA" opacity="0.16" stroke="#A78BFA"/>
    <line x1="120" y1="0" x2="120" y2="280" stroke="#E5E7EB" opacity="0.35"/>
    <circle cx="120" cy="140" r="7" fill="#00F5A0"/>
  </g>
</svg>
