<svg xmlns="http://www.w3.org/2000/svg" width="980" height="260" viewBox="0 0 980 260" role="img" aria-labelledby="title desc">
  <title id="title">CompText wordmark</title>
  <desc id="desc">CompText wordmark with the Operating System for Context tagline.</desc>
  <defs>
    <linearGradient id="accent" x1="0" y1="0" x2="1" y2="1">
      <stop offset="0" stop-color="#00F5A0"/>
      <stop offset="0.52" stop-color="#38BDF8"/>
      <stop offset="1" stop-color="#A78BFA"/>
    </linearGradient>
    <filter id="shadow" x="-20%" y="-20%" width="140%" height="140%">
      <feDropShadow dx="0" dy="14" stdDeviation="16" flood-color="#000" flood-opacity="0.4"/>
    </filter>
  </defs>
  <rect width="980" height="260" rx="36" fill="#05070D"/>
  <g transform="translate(54 50)" filter="url(#shadow)">
    <path d="M74 0 148 42v78l-74 42L0 120V42L74 0Z" fill="#F8FAFC"/>
    <path d="M74 32 116 55v19L74 52 32 75v34l42 23 42-23v19l-42 23-58-32V66l58-34Z" fill="#05070D"/>
    <path d="M18 122 74 153l56-31" fill="none" stroke="#00F5A0" stroke-width="9" stroke-linecap="round"/>
    <path d="M18 148 74 179l56-31" fill="none" stroke="#38BDF8" stroke-width="9" stroke-linecap="round"/>
    <path d="M18 174 74 205l56-31" fill="none" stroke="#A78BFA" stroke-width="9" stroke-linecap="round"/>
  </g>
  <text x="245" y="117" fill="#F8FAFC" font-family="Inter, ui-sans-serif, system-ui, -apple-system, Segoe UI, sans-serif" font-size="58" font-weight="850" letter-spacing="14">COMPTEXT</text>
  <text x="248" y="164" fill="#00F5A0" font-family="Inter, ui-sans-serif, system-ui, -apple-system, Segoe UI, sans-serif" font-size="18" font-weight="800" letter-spacing="7">THE OPERATING SYSTEM FOR CONTEXT</text>
  <text x="248" y="205" fill="#CBD5E1" font-family="Inter, ui-sans-serif, system-ui, -apple-system, Segoe UI, sans-serif" font-size="19" font-weight="500">Deterministic. Portable. Verifiable.</text>
</svg>
