<svg xmlns="http://www.w3.org/2000/svg" width="512" height="512" viewBox="0 0 512 512" role="img" aria-labelledby="title desc">
  <title id="title">CompText mark</title>
  <desc id="desc">CompText mark: a C-shaped context layer symbol for deterministic context infrastructure.</desc>
  <defs>
    <linearGradient id="layer" x1="0" y1="0" x2="1" y2="1">
      <stop offset="0" stop-color="#00F5A0"/>
      <stop offset="0.55" stop-color="#38BDF8"/>
      <stop offset="1" stop-color="#A78BFA"/>
    </linearGradient>
    <radialGradient id="glow" cx="50%" cy="45%" r="60%">
      <stop offset="0" stop-color="#38BDF8" stop-opacity="0.25"/>
      <stop offset="1" stop-color="#38BDF8" stop-opacity="0"/>
    </radialGradient>
    <filter id="soft" x="-30%" y="-30%" width="160%" height="160%">
      <feDropShadow dx="0" dy="18" stdDeviation="22" flood-color="#000" flood-opacity="0.5"/>
    </filter>
  </defs>
  <rect width="512" height="512" rx="112" fill="#05070D"/>
  <circle cx="256" cy="226" r="210" fill="url(#glow)"/>
  <g filter="url(#soft)">
    <path d="M258 72 394 150v62l-48 27v-60l-88-50-103 59v136l103 59 88-50v-60l48 27v62L258 440 106 352V160L258 72Z" fill="#F8FAFC"/>
    <path d="M128 370 258 445l130-75" fill="none" stroke="#38BDF8" stroke-width="18" stroke-linecap="round" stroke-linejoin="round"/>
    <path d="M128 410 258 485l130-75" fill="none" stroke="#A78BFA" stroke-width="18" stroke-linecap="round" stroke-linejoin="round"/>
    <path d="M128 330 258 405l130-75" fill="none" stroke="#00F5A0" stroke-width="18" stroke-linecap="round" stroke-linejoin="round"/>
  </g>
</svg>
