<svg xmlns="http://www.w3.org/2000/svg" width="1280" height="640" viewBox="0 0 1280 640" role="img" aria-labelledby="title desc">
  <title id="title">CompText GitHub social preview</title>
  <desc id="desc">CompText social preview: The Operating System for Context.</desc>
  <defs>
    <linearGradient id="bg" x1="0" y1="0" x2="1" y2="1">
      <stop offset="0%" stop-color="#05070D"/>
      <stop offset="58%" stop-color="#0B1020"/>
      <stop offset="100%" stop-color="#111827"/>
    </linearGradient>
    <radialGradient id="sun" cx="72%" cy="45%" r="38%">
      <stop offset="0%" stop-color="#38BDF8" stop-opacity="0.34"/>
      <stop offset="100%" stop-color="#38BDF8" stop-opacity="0"/>
    </radialGradient>
    <filter id="shadow" x="-20%" y="-20%" width="140%" height="140%">
      <feDropShadow dx="0" dy="22" stdDeviation="26" flood-color="#000" flood-opacity="0.48"/>
    </filter>
  </defs>
  <rect width="1280" height="640" fill="url(#bg)"/>
  <circle cx="910" cy="285" r="360" fill="url(#sun)"/>
  <g opacity="0.18" stroke="#1F2937" stroke-width="1">
    <path d="M0 110h1280M0 220h1280M0 330h1280M0 440h1280M0 550h1280"/>
    <path d="M128 0v640M256 0v640M384 0v640M512 0v640M640 0v640M768 0v640M896 0v640M1024 0v640M1152 0v640"/>
  </g>
  <g transform="translate(90 94)" filter="url(#shadow)">
    <path d="M98 0 196 56v102l-98 56L0 158V56L98 0Z" fill="#F8FAFC"/>
    <path d="M98 42 153 73v24L98 68 43 98v45l55 31 55-31v24l-55 31-76-43V86l76-44Z" fill="#05070D"/>
    <path d="M24 164 98 206l74-42" fill="none" stroke="#00F5A0" stroke-width="12" stroke-linecap="round"/>
    <path d="M24 200 98 242l74-42" fill="none" stroke="#38BDF8" stroke-width="12" stroke-linecap="round"/>
    <path d="M24 236 98 278l74-42" fill="none" stroke="#A78BFA" stroke-width="12" stroke-linecap="round"/>
  </g>
  <text x="355" y="176" fill="#F8FAFC" font-family="Inter, ui-sans-serif, system-ui, -apple-system, Segoe UI, sans-serif" font-size="72" font-weight="850" letter-spacing="18">COMPTEXT</text>
  <text x="360" y="236" fill="#00F5A0" font-family="Inter, ui-sans-serif, system-ui, -apple-system, Segoe UI, sans-serif" font-size="25" font-weight="800" letter-spacing="8">THE OPERATING SYSTEM FOR CONTEXT</text>
  <text x="360" y="304" fill="#E5E7EB" font-family="Inter, ui-sans-serif, system-ui, -apple-system, Segoe UI, sans-serif" font-size="32" font-weight="500">Deterministic context infrastructure for AI systems.</text>
  <text x="360" y="365" fill="#CBD5E1" font-family="Inter, ui-sans-serif, system-ui, -apple-system, Segoe UI, sans-serif" font-size="25" font-weight="500">Models are providers. Context is the product.</text>
  <g transform="translate(366 442)">
    <text x="0" y="0" fill="#00F5A0" font-family="Inter, ui-sans-serif, system-ui, -apple-system, Segoe UI, sans-serif" font-size="24" font-weight="800" letter-spacing="8">DETERMINISTIC.</text>
    <text x="286" y="0" fill="#38BDF8" font-family="Inter, ui-sans-serif, system-ui, -apple-system, Segoe UI, sans-serif" font-size="24" font-weight="800" letter-spacing="8">PORTABLE.</text>
    <text x="520" y="0" fill="#A78BFA" font-family="Inter, ui-sans-serif, system-ui, -apple-system, Segoe UI, sans-serif" font-size="24" font-weight="800" letter-spacing="8">VERIFIABLE.</text>
  </g>
  <g transform="translate(940 120)" opacity="0.92">
    <polygon points="100,0 215,62 100,124 -15,62" fill="#00F5A0" opacity="0.18" stroke="#00F5A0"/>
    <polygon points="100,66 215,128 100,190 -15,128" fill="#38BDF8" opacity="0.16" stroke="#38BDF8"/>
    <polygon points="100,132 215,194 100,256 -15,194" fill="#A78BFA" opacity="0.16" stroke="#A78BFA"/>
    <line x1="100" y1="0" x2="100" y2="256" stroke="#E5E7EB" opacity="0.35"/>
    <circle cx="100" cy="128" r="7" fill="#00F5A0"/>
  </g>
</svg>
